<?xml version="1.0" encoding="UTF-8"?>
<svg xmlns="http://www.w3.org/2000/svg" xmlns:xlink="http://www.w3.org/1999/xlink" width="120pt" height="120pt" viewBox="0 0 120 120" version="1.1">
<defs>
<filter id="alpha" filterUnits="objectBoundingBox" x="0%" y="0%" width="100%" height="100%">
  <feColorMatrix type="matrix" in="SourceGraphic" values="0 0 0 0 1 0 0 0 0 1 0 0 0 0 1 0 0 0 1 0"/>
</filter>
<mask id="mask0">
  <g filter="url(#alpha)">
<rect x="0" y="0" width="120" height="120" style="fill:rgb(0%,0%,0%);fill-opacity:0.501961;stroke:none;"/>
  </g>
</mask>
<clipPath id="clip1">
  <rect x="0" y="0" width="120" height="120"/>
</clipPath>
<g id="surface5" clip-path="url(#clip1)">
<path style=" stroke:none;fill-rule:nonzero;fill:rgb(73.333333%,82.352941%,89.803922%);fill-opacity:1;" d="M 117.03125 20.957031 C 114.453125 18.199219 111.246094 16.554688 107.773438 16.554688 L 8.164062 16.554688 C 5.769531 16.578125 3.441406 17.332031 1.492188 18.714844 C 3.703125 8.878906 12.425781 1.878906 22.507812 1.851562 L 95.640625 1.851562 C 106.578125 1.886719 115.765625 10.089844 117.03125 20.957031 Z M 117.03125 20.957031 "/>
</g>
</defs>
<g id="surface1">
<path style=" stroke:none;fill-rule:nonzero;fill:rgb(92.156863%,94.117647%,97.647059%);fill-opacity:1;" d="M 23.738281 1.851562 L 96.878906 1.851562 C 108.765625 1.851562 118.398438 11.488281 118.398438 23.371094 L 118.398438 96.628906 C 118.398438 108.511719 108.765625 118.148438 96.878906 118.148438 L 23.738281 118.148438 C 11.851562 118.148438 2.21875 108.511719 2.21875 96.628906 L 2.21875 23.371094 C 2.21875 11.488281 11.851562 1.851562 23.738281 1.851562 Z M 23.738281 1.851562 "/>
<use xlink:href="#surface5" mask="url(#mask0)"/>
<path style=" stroke:none;fill-rule:nonzero;fill:rgb(19.607843%,79.215686%,97.254902%);fill-opacity:1;" d="M 26.015625 9.484375 L 92.402344 9.484375 C 101.148438 9.484375 108.242188 16.574219 108.242188 25.324219 L 108.242188 75.9375 C 108.242188 84.683594 101.148438 91.777344 92.402344 91.777344 L 26.015625 91.777344 C 17.265625 91.777344 10.175781 84.683594 10.175781 75.9375 L 10.175781 25.324219 C 10.175781 16.574219 17.265625 9.484375 26.015625 9.484375 Z M 26.015625 9.484375 "/>
<path style=" stroke:none;fill-rule:nonzero;fill:rgb(0%,63.921569%,92.156863%);fill-opacity:1;" d="M 108.238281 23.332031 L 108.238281 32.773438 C 108.238281 25.160156 103.027344 18.925781 96.667969 18.925781 L 21.746094 18.925781 C 15.382812 18.925781 10.175781 25.160156 10.175781 32.773438 L 10.175781 23.332031 C 10.175781 15.714844 15.382812 9.484375 21.746094 9.484375 L 96.667969 9.484375 C 103.03125 9.484375 108.238281 15.714844 108.238281 23.332031 Z M 108.238281 23.332031 "/>
<path style=" stroke:none;fill-rule:nonzero;fill:rgb(100%,100%,100%);fill-opacity:1;" d="M 103.941406 62.679688 C 103.886719 58.933594 103.3125 55.902344 102.660156 55.914062 C 102.007812 55.921875 101.523438 58.96875 101.578125 62.714844 C 101.636719 66.460938 102.210938 69.488281 102.863281 69.476562 C 103.515625 69.46875 104 66.421875 103.941406 62.679688 Z M 103.941406 62.679688 "/>
<path style=" stroke:none;fill-rule:nonzero;fill:rgb(100%,100%,100%);fill-opacity:1;" d="M 104.109375 75.953125 C 104.082031 74.078125 103.527344 72.570312 102.875 72.578125 C 102.222656 72.589844 101.71875 74.117188 101.746094 75.988281 C 101.773438 77.859375 102.324219 79.371094 102.976562 79.363281 C 103.628906 79.351562 104.136719 77.824219 104.109375 75.953125 Z M 104.109375 75.953125 "/>
<path style=" stroke:none;fill-rule:nonzero;fill:rgb(25.882353%,39.607843%,44.705882%);fill-opacity:1;" d="M 92.398438 93.359375 L 26.015625 93.359375 C 16.25 93.347656 8.335938 85.433594 8.324219 75.664062 L 8.324219 25.058594 C 8.332031 15.289062 16.246094 7.371094 26.015625 7.359375 L 92.398438 7.359375 C 102.164062 7.371094 110.078125 15.285156 110.089844 25.050781 L 110.089844 75.660156 C 110.082031 85.429688 102.167969 93.347656 92.398438 93.359375 Z M 26.015625 11.0625 C 18.292969 11.074219 12.035156 17.332031 12.027344 25.054688 L 12.027344 75.664062 C 12.039062 83.382812 18.292969 89.640625 26.015625 89.652344 L 92.398438 89.652344 C 100.121094 89.640625 106.375 83.382812 106.386719 75.664062 L 106.386719 25.054688 C 106.375 17.332031 100.121094 11.074219 92.398438 11.066406 Z M 26.015625 11.0625 "/>
<path style=" stroke:none;fill-rule:nonzero;fill:rgb(41.568627%,88.235294%,51.764706%);fill-opacity:1;" d="M 34.390625 63.261719 L 44.046875 44.5625 C 45.28125 42.175781 48.167969 42.128906 49.457031 44.480469 L 59.679688 63.175781 C 61.074219 65.730469 59.546875 69.113281 56.996094 69.113281 L 37.113281 69.113281 C 34.617188 69.125 33.074219 65.8125 34.390625 63.261719 Z M 34.390625 63.261719 "/>
<path style=" stroke:none;fill-rule:nonzero;fill:rgb(65.882353%,100%,54.901961%);fill-opacity:1;" d="M 56.996094 68.035156 L 37.113281 68.035156 C 34.601562 68.035156 33.070312 64.738281 34.386719 62.171875 C 34.933594 63.234375 35.910156 63.984375 37.109375 63.984375 L 56.992188 63.984375 C 58.191406 63.984375 59.152344 63.234375 59.714844 62.171875 C 61.042969 64.714844 59.523438 68.035156 56.996094 68.035156 Z M 56.996094 68.035156 "/>
<path style=" stroke:none;fill-rule:nonzero;fill:rgb(25.882353%,39.607843%,44.705882%);fill-opacity:1;" d="M 96.570312 120 L 23.4375 120 C 10.53125 119.988281 0.0742188 109.53125 0.0585938 96.628906 L 0.0585938 23.371094 C 0.0742188 10.46875 10.527344 0.015625 23.429688 0 L 96.5625 0 C 109.46875 0.0117188 119.925781 10.46875 119.941406 23.371094 L 119.941406 96.628906 C 119.925781 109.53125 109.472656 119.984375 96.570312 120 Z M 23.429688 3.703125 C 12.570312 3.714844 3.773438 12.515625 3.761719 23.371094 L 3.761719 96.628906 C 3.773438 107.484375 12.570312 116.285156 23.429688 116.296875 L 96.5625 116.296875 C 107.421875 116.285156 116.222656 107.484375 116.234375 96.628906 L 116.234375 23.371094 C 116.222656 12.515625 107.425781 3.71875 96.570312 3.703125 Z M 23.429688 3.703125 "/>
<path style=" stroke:none;fill-rule:nonzero;fill:rgb(25.882353%,39.607843%,44.705882%);fill-opacity:1;" d="M 56.996094 70.695312 L 37.113281 70.695312 C 35.382812 70.675781 33.796875 69.734375 32.945312 68.226562 C 31.828125 66.367188 31.75 64.058594 32.742188 62.128906 L 42.398438 43.433594 C 43.300781 41.6875 44.914062 40.632812 46.71875 40.613281 C 48.523438 40.589844 50.144531 41.601562 51.078125 43.308594 L 61.304688 62.027344 C 62.359375 63.957031 62.320312 66.300781 61.199219 68.199219 C 60.34375 69.71875 58.742188 70.667969 56.996094 70.695312 Z M 36.035156 63.835938 C 35.640625 64.621094 35.667969 65.550781 36.113281 66.304688 C 36.308594 66.691406 36.6875 66.945312 37.117188 66.984375 L 56.996094 66.984375 C 57.433594 66.945312 57.820312 66.679688 58.015625 66.285156 C 58.453125 65.511719 58.46875 64.570312 58.054688 63.785156 L 47.832031 45.089844 C 47.648438 44.660156 47.242188 44.363281 46.777344 44.320312 C 46.359375 44.320312 45.972656 44.628906 45.707031 45.136719 Z M 36.035156 63.835938 "/>
<path style=" stroke:none;fill-rule:nonzero;fill:rgb(41.568627%,88.235294%,51.764706%);fill-opacity:1;" d="M 47.667969 60.527344 L 61.386719 33.96875 C 63.136719 30.574219 67.25 30.511719 69.070312 33.847656 L 83.589844 60.40625 C 85.574219 64.03125 83.398438 68.84375 79.78125 68.84375 L 51.542969 68.84375 C 47.972656 68.84375 45.792969 64.15625 47.667969 60.527344 Z M 47.667969 60.527344 "/>
<path style=" stroke:none;fill-rule:nonzero;fill:rgb(65.882353%,100%,54.901961%);fill-opacity:1;" d="M 79.785156 67.761719 L 51.542969 67.761719 C 48.03125 67.761719 45.859375 63.21875 47.585938 59.613281 C 48.347656 61.214844 49.773438 62.367188 51.542969 62.367188 L 79.785156 62.367188 C 81.550781 62.367188 82.976562 61.214844 83.738281 59.613281 C 85.457031 63.203125 83.308594 67.761719 79.785156 67.761719 Z M 79.785156 67.761719 "/>
<path style=" stroke:none;fill-rule:nonzero;fill:rgb(25.882353%,39.607843%,44.705882%);fill-opacity:1;" d="M 79.785156 70.695312 L 51.542969 70.695312 C 49.410156 70.695312 47.492188 69.558594 46.296875 67.578125 C 44.84375 65.167969 44.746094 62.179688 46.035156 59.675781 L 59.75 33.121094 C 60.894531 30.902344 62.933594 29.5625 65.203125 29.535156 L 65.269531 29.535156 C 67.5 29.535156 69.527344 30.8125 70.703125 32.964844 L 85.226562 59.515625 C 86.585938 62.015625 86.535156 65.046875 85.089844 67.5 C 83.878906 69.53125 81.945312 70.695312 79.785156 70.695312 Z M 49.3125 61.375 C 48.625 62.730469 48.675781 64.34375 49.449219 65.652344 C 49.757812 66.152344 50.429688 66.992188 51.542969 66.992188 L 79.78125 66.992188 C 80.910156 66.992188 81.589844 66.128906 81.894531 65.613281 C 82.664062 64.285156 82.691406 62.648438 81.964844 61.292969 L 67.441406 34.738281 C 66.914062 33.773438 66.109375 33.21875 65.230469 33.234375 C 64.351562 33.25 63.539062 33.820312 63.023438 34.816406 L 49.308594 61.375 Z M 49.3125 61.375 "/>
</g>
</svg>
